<mxfile host="65bd71144e">
    <diagram id="rgcUEECF-GsVnKuYrXBD" name="Page-1">
        <mxGraphModel dx="1159" dy="804" grid="1" gridSize="10" guides="1" tooltips="1" connect="1" arrows="1" fold="1" page="1" pageScale="1" pageWidth="850" pageHeight="1100" math="0" shadow="0">
            <root>
                <mxCell id="0"/>
                <mxCell id="1" parent="0"/>
                <mxCell id="2" value="" style="ellipse;whiteSpace=wrap;html=1;aspect=fixed;" parent="1" vertex="1">
                    <mxGeometry x="652" y="360" width="82" height="80" as="geometry"/>
                </mxCell>
                <mxCell id="4" value="Open Web-Side" style="rounded=1;whiteSpace=wrap;html=1;fontSize=20;" parent="1" vertex="1">
                    <mxGeometry x="587" y="520" width="212" height="110" as="geometry"/>
                </mxCell>
                <mxCell id="9" value="" style="endArrow=classic;html=1;fontSize=20;" parent="1" edge="1">
                    <mxGeometry width="50" height="50" relative="1" as="geometry">
                        <mxPoint x="697" y="630" as="sourcePoint"/>
                        <mxPoint x="697" y="710" as="targetPoint"/>
                    </mxGeometry>
                </mxCell>
                <mxCell id="14" value="" style="endArrow=none;html=1;fontSize=20;strokeWidth=4;" parent="1" edge="1">
                    <mxGeometry width="50" height="50" relative="1" as="geometry">
                        <mxPoint x="590" y="710" as="sourcePoint"/>
                        <mxPoint x="800" y="710" as="targetPoint"/>
                    </mxGeometry>
                </mxCell>
                <mxCell id="15" value="" style="endArrow=classic;html=1;strokeWidth=4;fontSize=20;entryX=0.5;entryY=0;entryDx=0;entryDy=0;" parent="1" edge="1" target="17">
                    <mxGeometry width="50" height="50" relative="1" as="geometry">
                        <mxPoint x="590" y="710" as="sourcePoint"/>
                        <mxPoint x="617" y="790" as="targetPoint"/>
                    </mxGeometry>
                </mxCell>
                <mxCell id="16" value="" style="endArrow=classic;html=1;strokeWidth=4;fontSize=20;entryX=0.434;entryY=0;entryDx=0;entryDy=0;entryPerimeter=0;" parent="1" target="18" edge="1">
                    <mxGeometry width="50" height="50" relative="1" as="geometry">
                        <mxPoint x="800" y="710" as="sourcePoint"/>
                        <mxPoint x="830" y="780" as="targetPoint"/>
                    </mxGeometry>
                </mxCell>
                <mxCell id="17" value="Login" style="rounded=1;whiteSpace=wrap;html=1;fontSize=20;" parent="1" vertex="1">
                    <mxGeometry x="529" y="900" width="122" height="60" as="geometry"/>
                </mxCell>
                <mxCell id="18" value="Sign-up" style="rounded=1;whiteSpace=wrap;html=1;fontSize=20;" parent="1" vertex="1">
                    <mxGeometry x="747" y="790" width="122" height="60" as="geometry"/>
                </mxCell>
                <mxCell id="19" value="" style="endArrow=classic;html=1;strokeWidth=4;fontSize=20;exitX=0.5;exitY=1;exitDx=0;exitDy=0;entryX=0.5;entryY=0;entryDx=0;entryDy=0;" parent="1" source="17" edge="1" target="20">
                    <mxGeometry width="50" height="50" relative="1" as="geometry">
                        <mxPoint x="677" y="720" as="sourcePoint"/>
                        <mxPoint x="592" y="920" as="targetPoint"/>
                    </mxGeometry>
                </mxCell>
                <mxCell id="20" value="Enter Username and Password" style="rounded=1;whiteSpace=wrap;html=1;fontSize=20;" parent="1" vertex="1">
                    <mxGeometry x="506.5" y="1010" width="167" height="110" as="geometry"/>
                </mxCell>
                <mxCell id="21" value="" style="rhombus;whiteSpace=wrap;html=1;fontSize=20;" parent="1" vertex="1">
                    <mxGeometry x="533" y="1227" width="82" height="80" as="geometry"/>
                </mxCell>
                <mxCell id="22" value="" style="endArrow=classic;html=1;strokeWidth=4;fontSize=20;exitX=0.4;exitY=1.04;exitDx=0;exitDy=0;exitPerimeter=0;" parent="1" target="21" edge="1">
                    <mxGeometry width="50" height="50" relative="1" as="geometry">
                        <mxPoint x="574.8000000000002" y="1125.8599999999997" as="sourcePoint"/>
                        <mxPoint x="798" y="934.46" as="targetPoint"/>
                    </mxGeometry>
                </mxCell>
                <mxCell id="23" value="If Correct" style="endArrow=none;html=1;strokeWidth=4;fontSize=20;exitX=0;exitY=0.5;exitDx=0;exitDy=0;" parent="1" source="21" edge="1">
                    <mxGeometry width="50" height="50" relative="1" as="geometry">
                        <mxPoint x="533" y="1267.46" as="sourcePoint"/>
                        <mxPoint x="418" y="1266.46" as="targetPoint"/>
                    </mxGeometry>
                </mxCell>
                <mxCell id="24" value="" style="endArrow=none;html=1;strokeWidth=4;fontSize=20;verticalAlign=bottom;" parent="1" edge="1">
                    <mxGeometry width="50" height="50" relative="1" as="geometry">
                        <mxPoint x="418" y="1266.46" as="sourcePoint"/>
                        <mxPoint x="418" y="1478" as="targetPoint"/>
                    </mxGeometry>
                </mxCell>
                <mxCell id="25" value="" style="endArrow=none;html=1;strokeWidth=4;fontSize=20;" parent="1" edge="1">
                    <mxGeometry width="50" height="50" relative="1" as="geometry">
                        <mxPoint x="421" y="1478" as="sourcePoint"/>
                        <mxPoint x="558" y="1479.46" as="targetPoint"/>
                    </mxGeometry>
                </mxCell>
                <mxCell id="26" value="" style="endArrow=classic;html=1;strokeWidth=4;fontSize=20;entryX=0.5;entryY=0;entryDx=0;entryDy=0;" parent="1" target="27" edge="1">
                    <mxGeometry width="50" height="50" relative="1" as="geometry">
                        <mxPoint x="558" y="1478" as="sourcePoint"/>
                        <mxPoint x="558" y="1561" as="targetPoint"/>
                    </mxGeometry>
                </mxCell>
                <mxCell id="27" value="Login Successfully" style="rounded=1;whiteSpace=wrap;html=1;fontSize=20;" parent="1" vertex="1">
                    <mxGeometry x="493" y="1671" width="122" height="90" as="geometry"/>
                </mxCell>
                <mxCell id="28" value="" style="endArrow=classic;html=1;strokeWidth=4;fontSize=20;exitX=0.5;exitY=1;exitDx=0;exitDy=0;entryX=0.5;entryY=0;entryDx=0;entryDy=0;" parent="1" source="2" target="4" edge="1">
                    <mxGeometry width="50" height="50" relative="1" as="geometry">
                        <mxPoint x="677" y="720" as="sourcePoint"/>
                        <mxPoint x="627" y="800" as="targetPoint"/>
                    </mxGeometry>
                </mxCell>
                <mxCell id="31" value="" style="ellipse;whiteSpace=wrap;html=1;aspect=fixed;" parent="1" vertex="1">
                    <mxGeometry x="513" y="1900" width="82" height="80" as="geometry"/>
                </mxCell>
                <mxCell id="32" value="" style="endArrow=classic;html=1;strokeWidth=4;fontSize=20;entryX=0.5;entryY=0;entryDx=0;entryDy=0;exitX=0.5;exitY=1;exitDx=0;exitDy=0;" parent="1" source="27" target="31" edge="1">
                    <mxGeometry width="50" height="50" relative="1" as="geometry">
                        <mxPoint x="548" y="1528" as="sourcePoint"/>
                        <mxPoint x="568" y="1448" as="targetPoint"/>
                        <Array as="points"/>
                    </mxGeometry>
                </mxCell>
                <mxCell id="33" value="If InCorrect" style="endArrow=none;html=1;strokeWidth=4;fontSize=20;entryX=1;entryY=0.5;entryDx=0;entryDy=0;" parent="1" edge="1" target="21">
                    <mxGeometry width="50" height="50" relative="1" as="geometry">
                        <mxPoint x="881" y="1268" as="sourcePoint"/>
                        <mxPoint x="615" y="1267.46" as="targetPoint"/>
                    </mxGeometry>
                </mxCell>
                <mxCell id="34" value="Enter Username and Password" style="rounded=1;whiteSpace=wrap;html=1;fontSize=20;" parent="1" vertex="1">
                    <mxGeometry x="808" y="1481" width="167" height="110" as="geometry"/>
                </mxCell>
                <mxCell id="36" value="" style="endArrow=classic;html=1;strokeWidth=4;fontSize=20;entryX=0.44;entryY=0.014;entryDx=0;entryDy=0;entryPerimeter=0;" parent="1" edge="1" target="34">
                    <mxGeometry width="50" height="50" relative="1" as="geometry">
                        <mxPoint x="881" y="1268" as="sourcePoint"/>
                        <mxPoint x="878" y="1356.46" as="targetPoint"/>
                    </mxGeometry>
                </mxCell>
                <mxCell id="37" value="Enter Correct&amp;nbsp;" style="rounded=1;whiteSpace=wrap;html=1;fontSize=20;" parent="1" vertex="1">
                    <mxGeometry x="850" y="1681" width="122" height="90" as="geometry"/>
                </mxCell>
                <mxCell id="38" value="" style="endArrow=classic;html=1;strokeWidth=4;fontSize=20;entryX=0.391;entryY=-0.023;entryDx=0;entryDy=0;entryPerimeter=0;" parent="1" target="37" edge="1">
                    <mxGeometry width="50" height="50" relative="1" as="geometry">
                        <mxPoint x="898" y="1591" as="sourcePoint"/>
                        <mxPoint x="898" y="1671" as="targetPoint"/>
                    </mxGeometry>
                </mxCell>
                <mxCell id="39" value="" style="endArrow=classic;html=1;strokeWidth=4;fontSize=20;exitX=0;exitY=0.333;exitDx=0;exitDy=0;exitPerimeter=0;entryX=0.992;entryY=0.423;entryDx=0;entryDy=0;entryPerimeter=0;" parent="1" source="37" edge="1" target="27">
                    <mxGeometry width="50" height="50" relative="1" as="geometry">
                        <mxPoint x="828" y="1701" as="sourcePoint"/>
                        <mxPoint x="608" y="1711" as="targetPoint"/>
                    </mxGeometry>
                </mxCell>
                <mxCell id="40" value="" style="endArrow=none;html=1;strokeWidth=4;fontSize=20;" parent="1" edge="1">
                    <mxGeometry width="50" height="50" relative="1" as="geometry">
                        <mxPoint x="867" y="819.0899999999999" as="sourcePoint"/>
                        <mxPoint x="1187" y="819" as="targetPoint"/>
                    </mxGeometry>
                </mxCell>
                <mxCell id="41" value="" style="endArrow=classic;html=1;strokeWidth=4;fontSize=20;entryX=0.5;entryY=0;entryDx=0;entryDy=0;" parent="1" target="42" edge="1">
                    <mxGeometry width="50" height="50" relative="1" as="geometry">
                        <mxPoint x="1187" y="820" as="sourcePoint"/>
                        <mxPoint x="1027" y="910" as="targetPoint"/>
                    </mxGeometry>
                </mxCell>
                <mxCell id="42" value="Create Username" style="rounded=1;whiteSpace=wrap;html=1;fontSize=20;" parent="1" vertex="1">
                    <mxGeometry x="1127" y="910" width="122" height="60" as="geometry"/>
                </mxCell>
                <mxCell id="43" value="" style="endArrow=classic;html=1;strokeWidth=4;fontSize=20;exitX=0.5;exitY=1;exitDx=0;exitDy=0;" parent="1" source="42" edge="1">
                    <mxGeometry width="50" height="50" relative="1" as="geometry">
                        <mxPoint x="1017" y="970" as="sourcePoint"/>
                        <mxPoint x="1187" y="1050" as="targetPoint"/>
                    </mxGeometry>
                </mxCell>
                <mxCell id="44" value="Enter Mobile Number" style="rounded=1;whiteSpace=wrap;html=1;fontSize=20;" parent="1" vertex="1">
                    <mxGeometry x="1147" y="1050" width="122" height="60" as="geometry"/>
                </mxCell>
                <mxCell id="45" value="Create Password" style="rounded=1;whiteSpace=wrap;html=1;fontSize=20;" parent="1" vertex="1">
                    <mxGeometry x="1387" y="1050" width="122" height="60" as="geometry"/>
                </mxCell>
                <mxCell id="46" value="" style="endArrow=classic;html=1;strokeWidth=4;fontSize=20;entryX=0;entryY=0.5;entryDx=0;entryDy=0;exitX=1;exitY=0.5;exitDx=0;exitDy=0;" parent="1" source="44" target="45" edge="1">
                    <mxGeometry width="50" height="50" relative="1" as="geometry">
                        <mxPoint x="1007" y="1330" as="sourcePoint"/>
                        <mxPoint x="1057" y="1280" as="targetPoint"/>
                    </mxGeometry>
                </mxCell>
                <mxCell id="47" value="Account Created" style="rounded=1;whiteSpace=wrap;html=1;fontSize=20;" parent="1" vertex="1">
                    <mxGeometry x="1387" y="1210" width="122" height="60" as="geometry"/>
                </mxCell>
                <mxCell id="49" value="" style="endArrow=classic;html=1;strokeWidth=4;fontSize=20;exitX=0.5;exitY=1;exitDx=0;exitDy=0;entryX=0.5;entryY=0;entryDx=0;entryDy=0;" parent="1" source="45" target="47" edge="1">
                    <mxGeometry width="50" height="50" relative="1" as="geometry">
                        <mxPoint x="1027" y="980" as="sourcePoint"/>
                        <mxPoint x="1027" y="1070.0000000000002" as="targetPoint"/>
                    </mxGeometry>
                </mxCell>
                <mxCell id="50" value="" style="endArrow=none;html=1;strokeWidth=4;fontSize=20;entryX=0;entryY=0.5;entryDx=0;entryDy=0;" parent="1" target="47" edge="1">
                    <mxGeometry width="50" height="50" relative="1" as="geometry">
                        <mxPoint x="1047" y="1240" as="sourcePoint"/>
                        <mxPoint x="1057" y="1260" as="targetPoint"/>
                    </mxGeometry>
                </mxCell>
                <mxCell id="51" value="" style="endArrow=none;html=1;strokeWidth=4;fontSize=20;" parent="1" edge="1">
                    <mxGeometry width="50" height="50" relative="1" as="geometry">
                        <mxPoint x="1047" y="1240" as="sourcePoint"/>
                        <mxPoint x="1047" y="950" as="targetPoint"/>
                    </mxGeometry>
                </mxCell>
                <mxCell id="52" value="" style="endArrow=classic;html=1;strokeWidth=4;fontSize=20;entryX=1;entryY=0.75;entryDx=0;entryDy=0;" parent="1" target="17" edge="1">
                    <mxGeometry width="50" height="50" relative="1" as="geometry">
                        <mxPoint x="1047" y="950" as="sourcePoint"/>
                        <mxPoint x="1067" y="1230" as="targetPoint"/>
                    </mxGeometry>
                </mxCell>
            </root>
        </mxGraphModel>
    </diagram>
</mxfile>